<svg id="Слой_1" xmlns="http://www.w3.org/2000/svg" viewBox="0 0 170 22">
    <style>.st0{fill:#fff}</style>
    <path class="st0"
          d="M82.33 5c.02 0 .05 0 .07-.01l3.17-1.37c.06-.03.09-.11.06-.18l-.95-2.04c-.07-.14-.2-.24-.39-.29a.37.37 0 0 0-.38.2L82.2 4.78c-.03.05-.01.12.03.17.03.02.07.04.1.05zm4.76 1.57l-.99-2.14a.142.142 0 0 0-.09-.08c-.04-.02-.08-.02-.11 0l-4.38 1.89a.09.09 0 0 0-.06.06l-.56 1.13-6.52 1.8c-.11.03-.19.11-.24.23-.01.01-.02.06-.03.08-.02.15.05.31.18.41l1.76 1.44c.02.02.05.03.08.04.02 0 .05 0 .07-.01l10.81-4.67c.08-.03.11-.11.08-.18zm3.09 9.8l-.57-2.18a.159.159 0 0 0-.08-.1.17.17 0 0 0-.12-.01l-11.32 4.88c-.04.02-.06.05-.07.08l-.52 2.39c-.02.11.01.23.1.37.02.03.04.07.09.1.07.05.14.08.22.09.1.01.2-.01.27-.06l6.12-4.12 1.39.56c.04.01.07.01.11 0l4.3-1.86c.07-.01.09-.07.08-.14zm2.24-7.35l-13.44 5.8c-.04.02-.06.05-.07.08l-.61 2.83c-.01.05.01.11.06.15.02.02.05.03.08.04.02 0 .05 0 .07-.01l11.35-4.9c.02-.01.04-.02.05-.04l2.7-3.73c.04-.05.03-.12-.02-.17-.04-.06-.11-.08-.17-.05zm-1.97 8.43a.159.159 0 0 0-.08-.1.17.17 0 0 0-.12-.01L87.1 18.7c-.05.02-.08.07-.07.13.01.06.05.11.1.13l3.43 1.38.11.03c.11.02.22-.01.3-.08a.37.37 0 0 0 .11-.39l-.63-2.45zm3.24-10.14a.498.498 0 0 0-.41-.25l-4.76-.07c-.02 0-.04 0-.05.01l-11.43 4.93c-.04.02-.07.06-.07.11s.02.1.06.13l2.03 1.66c.02.02.05.03.08.04.02 0 .05 0 .07-.01l14.46-6.24c.05-.02.08-.08.07-.14a.549.549 0 0 0-.05-.17zM0 20.68V.59C0 .38.15.23.36.23h.86c.21 0 .36.15.36.36v18.93c0 .06.06.12.12.12h9.63c.21 0 .36.15.36.36v.68c0 .21-.15.36-.36.36H.36c-.21 0-.36-.15-.36-.36zm12.56-3.45c-.3-.98-.36-2.2-.36-3.71 0-1.57.09-2.73.33-3.68.68-2.41 2.77-4.01 5.63-4.01 2.83 0 4.94 1.6 5.6 4.01.27.98.33 2.2.33 3.68 0 1.55-.06 2.73-.33 3.71-.65 2.44-2.8 4.04-5.6 4.04-2.86 0-4.92-1.6-5.6-4.04zm9.73-.53c.15-.68.18-1.84.18-3.15 0-1.46-.03-2.5-.18-3.15-.45-1.9-1.99-3.18-4.17-3.18s-3.69 1.28-4.14 3.18c-.15.65-.18 1.78-.18 3.15 0 1.43.03 2.5.18 3.15.45 1.93 1.96 3.18 4.17 3.18 2.15 0 3.7-1.28 4.14-3.18zm16.04-5.88v9.86c0 .21-.15.36-.36.36h-.86c-.21 0-.36-.15-.36-.36V19.4c0-.09-.06-.15-.15-.06-1.07 1.28-2.89 1.93-4.79 1.93-2.47 0-4.88-1.13-4.88-4.22 0-2.94 2.29-4.75 6.13-4.75h3.57c.06 0 .12-.06.12-.12v-1.34c0-2.11-1.07-3.62-3.81-3.62-2.02 0-3.39.86-3.72 2.26-.06.21-.21.33-.42.3l-.92-.12c-.21-.03-.36-.15-.33-.33.39-2.08 2.47-3.51 5.42-3.51 3.58 0 5.36 2.02 5.36 5zm-1.57 5.61v-2.7c0-.06-.06-.12-.12-.12h-3.39c-2.8 0-4.73 1.22-4.73 3.36 0 2.02 1.61 2.94 3.6 2.94 2.32 0 4.64-1.16 4.64-3.48zm16.58-5.5v9.75c0 .21-.15.36-.36.36h-.86c-.21 0-.36-.15-.36-.36v-9.45c0-2.35-1.58-3.98-3.84-3.98-2.41 0-4.02 1.6-4.02 3.92v9.51c0 .21-.15.36-.36.36h-.86c-.21 0-.36-.15-.36-.36V6.42c0-.21.15-.36.36-.36h.86c.21 0 .36.15.36.36v1.4c0 .12.06.15.12.06.86-1.31 2.35-2.02 4.23-2.02 3.03-.01 5.09 2.01 5.09 5.07zm5.24 4.14v-.51c0-.33.18-.5.51-.5h3.13c.33 0 .51.15.51.39v.42c0 1.52 1.52 2.82 3.93 2.82 2.26 0 3.1-1.13 3.1-2.32 0-1.52-1.52-2.05-4.35-3.09-3.1-1.07-6.67-2.47-6.67-6.39 0-3.65 3.01-5.88 7.26-5.88 4.58 0 7.83 2.56 7.83 6.39v.3c0 .33-.18.5-.51.5h-3.13c-.33 0-.51-.12-.51-.3v-.3c0-1.55-1.34-3-3.84-3-1.9 0-2.98.83-2.98 2.23 0 1.54 1.31 2.08 4.61 3.24 2.71.98 6.46 2.14 6.46 6.18 0 3.63-2.95 6.03-7.62 6.03-4.66-.01-7.73-2.44-7.73-6.21zm37.21 5.46V.74c0-.33.18-.5.51-.5h3.18c.33 0 .51.18.51.5v19.79c0 .33-.18.5-.51.5H96.3c-.33.01-.51-.17-.51-.5zm17.53-14.77h3.18c.33 0 .51.18.51.5v14.26c0 .33-.18.5-.51.5h-3.18c-.33 0-.51-.18-.51-.5v-.8c0-.15-.12-.18-.21-.06-.77 1.04-1.99 1.57-3.66 1.57-2.89 0-5.18-1.78-5.18-5.2V6.27c0-.33.18-.5.51-.5h3.16c.33 0 .51.18.51.5v8.74c0 1.57.89 2.67 2.41 2.67 1.37 0 2.29-.89 2.47-2.2V6.27c0-.33.17-.51.5-.51zm15.81 3.36h-2.68c-.12 0-.18.06-.18.18v6.15c0 1.28.51 1.9 1.7 1.9h.83c.33 0 .51.18.51.5v2.56c0 .3-.18.5-.51.53-.57.03-1.1.06-1.64.06-3.04 0-4.91-.71-4.94-3.92V9.3c0-.12-.06-.18-.18-.18h-1.52c-.33 0-.51-.18-.51-.5V6.27c0-.33.18-.5.51-.5h1.52c.12 0 .18-.06.18-.18V1.55c0-.33.18-.5.51-.5h3.04c.33 0 .51.18.51.5v4.03c0 .12.06.18.18.18h2.68c.33 0 .51.18.51.5v2.35c-.02.33-.2.51-.52.51zm4.01 11.41V6.27c0-.33.18-.5.51-.5h3.18c.33 0 .51.18.51.5v14.26c0 .33-.18.5-.51.5h-3.18c-.33.01-.51-.17-.51-.5zm0-16.29V1.86c0-.33.18-.5.51-.5h3.18c.33 0 .51.18.51.5v2.38c0 .33-.18.5-.51.5h-3.18c-.33 0-.51-.18-.51-.5zm7.29 12.16c-.27-.89-.42-1.96-.42-3.03 0-1.13.15-2.26.45-3.15.89-2.91 3.36-4.69 6.76-4.69 3.27 0 5.68 1.78 6.61 4.67.3.92.45 2.02.45 3.12 0 1.04-.15 2.11-.39 3-.89 3.06-3.36 4.96-6.7 4.96-3.4-.01-5.9-1.88-6.76-4.88zm9.37-.95c.18-.59.24-1.34.24-2.08 0-.8-.09-1.58-.24-2.11-.39-1.34-1.31-2.14-2.68-2.14-1.34 0-2.26.83-2.65 2.14-.15.53-.24 1.31-.24 2.11 0 .77.09 1.54.24 2.08.39 1.37 1.31 2.23 2.71 2.23 1.31 0 2.23-.86 2.62-2.23zm20.2-4.52v9.6c0 .33-.18.5-.51.5h-3.18c-.33 0-.51-.18-.51-.5V11.8c0-1.57-.95-2.67-2.41-2.67s-2.47 1.07-2.47 2.67v8.74c0 .33-.18.5-.51.5h-3.18c-.33 0-.51-.18-.51-.5V6.27c0-.33.18-.5.51-.5h3.18c.33 0 .51.18.51.5v.83c0 .15.09.21.18.09.83-1.13 2.02-1.66 3.6-1.66 3.13 0 5.3 2.02 5.3 5.4z"/>
</svg>