<?xml version="1.0" encoding="utf-8"?>
<!-- Generator: Adobe Illustrator 25.1.0, SVG Export Plug-In . SVG Version: 6.00 Build 0)  -->
<svg version="1.1" id="Слой_1" xmlns="http://www.w3.org/2000/svg" xmlns:xlink="http://www.w3.org/1999/xlink" x="0px" y="0px"
	 viewBox="0 0 170 22" style="enable-background:new 0 0 170 22;" xml:space="preserve">
<style type="text/css">
	.st0{fill:#FFFFFF;}
</style>
<g>
	<g>
		<path class="st0" d="M82.33,5c0.02,0,0.05,0,0.07-0.01l3.17-1.37c0.06-0.03,0.09-0.11,0.06-0.18L84.68,1.4
			c-0.07-0.14-0.2-0.24-0.39-0.29c-0.16-0.02-0.31,0.06-0.38,0.2L82.2,4.78c-0.03,0.05-0.01,0.12,0.03,0.17
			C82.26,4.97,82.3,4.99,82.33,5z"/>
		<path class="st0" d="M87.09,6.57l-0.99-2.14c-0.02-0.04-0.05-0.07-0.09-0.08c-0.04-0.02-0.08-0.02-0.11,0l-4.38,1.89
			c-0.03,0.01-0.05,0.03-0.06,0.06L80.9,7.43l-6.52,1.8c-0.11,0.03-0.19,0.11-0.24,0.23c-0.01,0.01-0.02,0.06-0.03,0.08
			c-0.02,0.15,0.05,0.31,0.18,0.41l1.76,1.44c0.02,0.02,0.05,0.03,0.08,0.04c0.02,0,0.05,0,0.07-0.01l10.81-4.67
			C87.09,6.72,87.12,6.64,87.09,6.57z"/>
		<path class="st0" d="M90.18,16.37l-0.57-2.18c-0.01-0.04-0.04-0.08-0.08-0.1c-0.04-0.02-0.09-0.02-0.12-0.01l-11.32,4.88
			c-0.04,0.02-0.06,0.05-0.07,0.08l-0.52,2.39c-0.02,0.11,0.01,0.23,0.1,0.37c0.02,0.03,0.04,0.07,0.09,0.1
			c0.07,0.05,0.14,0.08,0.22,0.09c0.1,0.01,0.2-0.01,0.27-0.06l6.12-4.12l1.39,0.56c0.04,0.01,0.07,0.01,0.11,0l4.3-1.86
			C90.17,16.5,90.19,16.44,90.18,16.37z"/>
		<path class="st0" d="M92.42,9.02l-13.44,5.8c-0.04,0.02-0.06,0.05-0.07,0.08l-0.61,2.83c-0.01,0.05,0.01,0.11,0.06,0.15
			c0.02,0.02,0.05,0.03,0.08,0.04c0.02,0,0.05,0,0.07-0.01l11.35-4.9c0.02-0.01,0.04-0.02,0.05-0.04l2.7-3.73
			c0.04-0.05,0.03-0.12-0.02-0.17C92.55,9.01,92.48,8.99,92.42,9.02z"/>
		<path class="st0" d="M90.45,17.45c-0.01-0.04-0.04-0.08-0.08-0.1c-0.04-0.02-0.09-0.02-0.12-0.01l-3.15,1.36
			c-0.05,0.02-0.08,0.07-0.07,0.13c0.01,0.06,0.05,0.11,0.1,0.13l3.43,1.38c0.04,0.01,0.07,0.02,0.11,0.03
			c0.11,0.02,0.22-0.01,0.3-0.08c0.11-0.09,0.15-0.24,0.11-0.39L90.45,17.45z"/>
		<path class="st0" d="M93.69,7.31c-0.09-0.15-0.25-0.25-0.41-0.25l-4.76-0.07c-0.02,0-0.04,0-0.05,0.01l-11.43,4.93
			c-0.04,0.02-0.07,0.06-0.07,0.11c0,0.05,0.02,0.1,0.06,0.13l2.03,1.66c0.02,0.02,0.05,0.03,0.08,0.04c0.02,0,0.05,0,0.07-0.01
			l14.46-6.24c0.05-0.02,0.08-0.08,0.07-0.14C93.73,7.42,93.72,7.37,93.69,7.31z"/>
	</g>
	<path class="st0" d="M0,20.68V0.59c0-0.21,0.15-0.36,0.36-0.36h0.86c0.21,0,0.36,0.15,0.36,0.36v18.93c0,0.06,0.06,0.12,0.12,0.12
		h9.63c0.21,0,0.36,0.15,0.36,0.36v0.68c0,0.21-0.15,0.36-0.36,0.36H0.36C0.15,21.04,0,20.89,0,20.68z"/>
	<path class="st0" d="M12.56,17.23c-0.3-0.98-0.36-2.2-0.36-3.71c0-1.57,0.09-2.73,0.33-3.68c0.68-2.41,2.77-4.01,5.63-4.01
		c2.83,0,4.94,1.6,5.6,4.01c0.27,0.98,0.33,2.2,0.33,3.68c0,1.55-0.06,2.73-0.33,3.71c-0.65,2.44-2.8,4.04-5.6,4.04
		C15.3,21.27,13.24,19.67,12.56,17.23z M22.29,16.7c0.15-0.68,0.18-1.84,0.18-3.15c0-1.46-0.03-2.5-0.18-3.15
		c-0.45-1.9-1.99-3.18-4.17-3.18s-3.69,1.28-4.14,3.18c-0.15,0.65-0.18,1.78-0.18,3.15c0,1.43,0.03,2.5,0.18,3.15
		c0.45,1.93,1.96,3.18,4.17,3.18C20.3,19.88,21.85,18.6,22.29,16.7z"/>
	<path class="st0" d="M38.33,10.82v9.86c0,0.21-0.15,0.36-0.36,0.36h-0.86c-0.21,0-0.36-0.15-0.36-0.36V19.4
		c0-0.09-0.06-0.15-0.15-0.06c-1.07,1.28-2.89,1.93-4.79,1.93c-2.47,0-4.88-1.13-4.88-4.22c0-2.94,2.29-4.75,6.13-4.75h3.57
		c0.06,0,0.12-0.06,0.12-0.12v-1.34c0-2.11-1.07-3.62-3.81-3.62c-2.02,0-3.39,0.86-3.72,2.26c-0.06,0.21-0.21,0.33-0.42,0.3
		l-0.92-0.12c-0.21-0.03-0.36-0.15-0.33-0.33c0.39-2.08,2.47-3.51,5.42-3.51C36.55,5.82,38.33,7.84,38.33,10.82z M36.76,16.43v-2.7
		c0-0.06-0.06-0.12-0.12-0.12h-3.39c-2.8,0-4.73,1.22-4.73,3.36c0,2.02,1.61,2.94,3.6,2.94C34.44,19.91,36.76,18.75,36.76,16.43z"/>
	<path class="st0" d="M53.34,10.93v9.75c0,0.21-0.15,0.36-0.36,0.36h-0.86c-0.21,0-0.36-0.15-0.36-0.36v-9.45
		c0-2.35-1.58-3.98-3.84-3.98c-2.41,0-4.02,1.6-4.02,3.92v9.51c0,0.21-0.15,0.36-0.36,0.36h-0.86c-0.21,0-0.36-0.15-0.36-0.36V6.42
		c0-0.21,0.15-0.36,0.36-0.36h0.86c0.21,0,0.36,0.15,0.36,0.36v1.4c0,0.12,0.06,0.15,0.12,0.06c0.86-1.31,2.35-2.02,4.23-2.02
		C51.28,5.85,53.34,7.87,53.34,10.93z"/>
	<path class="st0" d="M58.58,15.07v-0.51c0-0.33,0.18-0.5,0.51-0.5h3.13c0.33,0,0.51,0.15,0.51,0.39v0.42
		c0,1.52,1.52,2.82,3.93,2.82c2.26,0,3.1-1.13,3.1-2.32c0-1.52-1.52-2.05-4.35-3.09c-3.1-1.07-6.67-2.47-6.67-6.39
		c0-3.65,3.01-5.88,7.26-5.88c4.58,0,7.83,2.56,7.83,6.39v0.3c0,0.33-0.18,0.5-0.51,0.5h-3.13c-0.33,0-0.51-0.12-0.51-0.3V6.6
		c0-1.55-1.34-3-3.84-3c-1.9,0-2.98,0.83-2.98,2.23c0,1.54,1.31,2.08,4.61,3.24c2.71,0.98,6.46,2.14,6.46,6.18
		c0,3.63-2.95,6.03-7.62,6.03C61.65,21.27,58.58,18.84,58.58,15.07z"/>
	<path class="st0" d="M95.79,20.53V0.74c0-0.33,0.18-0.5,0.51-0.5h3.18c0.33,0,0.51,0.18,0.51,0.5v19.79c0,0.33-0.18,0.5-0.51,0.5
		H96.3C95.97,21.04,95.79,20.86,95.79,20.53z"/>
	<path class="st0" d="M113.32,5.76h3.18c0.33,0,0.51,0.18,0.51,0.5v14.26c0,0.33-0.18,0.5-0.51,0.5h-3.18
		c-0.33,0-0.51-0.18-0.51-0.5v-0.8c0-0.15-0.12-0.18-0.21-0.06c-0.77,1.04-1.99,1.57-3.66,1.57c-2.89,0-5.18-1.78-5.18-5.2V6.27
		c0-0.33,0.18-0.5,0.51-0.5h3.16c0.33,0,0.51,0.18,0.51,0.5v8.74c0,1.57,0.89,2.67,2.41,2.67c1.37,0,2.29-0.89,2.47-2.2V6.27
		C112.82,5.94,112.99,5.76,113.32,5.76z"/>
	<path class="st0" d="M129.13,9.12h-2.68c-0.12,0-0.18,0.06-0.18,0.18v6.15c0,1.28,0.51,1.9,1.7,1.9h0.83c0.33,0,0.51,0.18,0.51,0.5
		v2.56c0,0.3-0.18,0.5-0.51,0.53c-0.57,0.03-1.1,0.06-1.64,0.06c-3.04,0-4.91-0.71-4.94-3.92V9.3c0-0.12-0.06-0.18-0.18-0.18h-1.52
		c-0.33,0-0.51-0.18-0.51-0.5V6.27c0-0.33,0.18-0.5,0.51-0.5h1.52c0.12,0,0.18-0.06,0.18-0.18V1.55c0-0.33,0.18-0.5,0.51-0.5h3.04
		c0.33,0,0.51,0.18,0.51,0.5v4.03c0,0.12,0.06,0.18,0.18,0.18h2.68c0.33,0,0.51,0.18,0.51,0.5v2.35
		C129.63,8.94,129.45,9.12,129.13,9.12z"/>
	<path class="st0" d="M133.14,20.53V6.27c0-0.33,0.18-0.5,0.51-0.5h3.18c0.33,0,0.51,0.18,0.51,0.5v14.26c0,0.33-0.18,0.5-0.51,0.5
		h-3.18C133.32,21.04,133.14,20.86,133.14,20.53z"/>
	<path class="st0" d="M133.14,4.24V1.86c0-0.33,0.18-0.5,0.51-0.5h3.18c0.33,0,0.51,0.18,0.51,0.5v2.38c0,0.33-0.18,0.5-0.51,0.5
		h-3.18C133.32,4.74,133.14,4.56,133.14,4.24z"/>
	<path class="st0" d="M140.43,16.4c-0.27-0.89-0.42-1.96-0.42-3.03c0-1.13,0.15-2.26,0.45-3.15c0.89-2.91,3.36-4.69,6.76-4.69
		c3.27,0,5.68,1.78,6.61,4.67c0.3,0.92,0.45,2.02,0.45,3.12c0,1.04-0.15,2.11-0.39,3c-0.89,3.06-3.36,4.96-6.7,4.96
		C143.79,21.27,141.29,19.4,140.43,16.4z M149.8,15.45c0.18-0.59,0.24-1.34,0.24-2.08c0-0.8-0.09-1.58-0.24-2.11
		c-0.39-1.34-1.31-2.14-2.68-2.14c-1.34,0-2.26,0.83-2.65,2.14c-0.15,0.53-0.24,1.31-0.24,2.11c0,0.77,0.09,1.54,0.24,2.08
		c0.39,1.37,1.31,2.23,2.71,2.23C148.49,17.68,149.41,16.82,149.8,15.45z"/>
	<path class="st0" d="M170,10.93v9.6c0,0.33-0.18,0.5-0.51,0.5h-3.18c-0.33,0-0.51-0.18-0.51-0.5V11.8c0-1.57-0.95-2.67-2.41-2.67
		s-2.47,1.07-2.47,2.67v8.74c0,0.33-0.18,0.5-0.51,0.5h-3.18c-0.33,0-0.51-0.18-0.51-0.5V6.27c0-0.33,0.18-0.5,0.51-0.5h3.18
		c0.33,0,0.51,0.18,0.51,0.5V7.1c0,0.15,0.09,0.21,0.18,0.09c0.83-1.13,2.02-1.66,3.6-1.66C167.83,5.53,170,7.55,170,10.93z"/>
</g>
</svg>
